<svg width="16" height="16" viewBox="0 0 16 16" fill="none" xmlns="http://www.w3.org/2000/svg">
<path d="M4 6.66659V5.33325C4 3.12659 4.66667 1.33325 8 1.33325C11.3333 1.33325 12 3.12659 12 5.33325V6.66659" stroke="#8E8E93" stroke-linecap="round" stroke-linejoin="round"/>
<path d="M7.99992 12.3333C8.92039 12.3333 9.66659 11.5871 9.66659 10.6667C9.66659 9.74619 8.92039 9 7.99992 9C7.07944 9 6.33325 9.74619 6.33325 10.6667C6.33325 11.5871 7.07944 12.3333 7.99992 12.3333Z" stroke="#8E8E93" stroke-linecap="round" stroke-linejoin="round"/>
<path d="M11.3333 14.6667H4.66659C1.99992 14.6667 1.33325 14.0001 1.33325 11.3334V10.0001C1.33325 7.33341 1.99992 6.66675 4.66659 6.66675H11.3333C13.9999 6.66675 14.6666 7.33341 14.6666 10.0001V11.3334C14.6666 14.0001 13.9999 14.6667 11.3333 14.6667Z" stroke="#8E8E93" stroke-linecap="round" stroke-linejoin="round"/>
</svg>
