<svg width="40" height="40" viewBox="0 0 40 40" fill="none" xmlns="http://www.w3.org/2000/svg">
<rect width="40" height="40" rx="20" fill="white"/>
<path fill-rule="evenodd" clip-rule="evenodd" d="M16.1454 11.2708C15.8408 11.25 15.4697 11.25 15.0253 11.25H14.9748C14.5303 11.25 14.1592 11.25 13.8546 11.2708C13.5375 11.2924 13.238 11.339 12.9476 11.4593C12.2738 11.7384 11.7384 12.2738 11.4593 12.9476C11.339 13.238 11.2924 13.5375 11.2708 13.8546C11.25 14.1592 11.25 14.5303 11.25 14.9747V15.0253C11.25 15.4697 11.25 15.8408 11.2708 16.1454C11.2924 16.4625 11.339 16.762 11.4593 17.0524C11.7384 17.7262 12.2738 18.2616 12.9476 18.5407C13.238 18.661 13.5375 18.7076 13.8546 18.7292C14.1592 18.75 14.5303 18.75 14.9747 18.75H15.0253C15.4697 18.75 15.8408 18.75 16.1454 18.7292C16.4625 18.7076 16.762 18.661 17.0524 18.5407C17.7262 18.2616 18.2616 17.7262 18.5407 17.0524C18.661 16.762 18.7076 16.4625 18.7292 16.1454C18.75 15.8408 18.75 15.4697 18.75 15.0253V14.9747C18.75 14.5303 18.75 14.1592 18.7292 13.8546C18.7076 13.5375 18.661 13.238 18.5407 12.9476C18.2616 12.2738 17.7262 11.7384 17.0524 11.4593C16.762 11.339 16.4625 11.2924 16.1454 11.2708ZM13.5216 12.8452C13.5988 12.8132 13.716 12.7837 13.9567 12.7673C14.2042 12.7504 14.5238 12.75 15 12.75C15.4762 12.75 15.7958 12.7504 16.0433 12.7673C16.284 12.7837 16.4012 12.8132 16.4784 12.8452C16.7846 12.972 17.028 13.2154 17.1549 13.5216C17.1868 13.5988 17.2163 13.716 17.2327 13.9567C17.2496 14.2042 17.25 14.5238 17.25 15C17.25 15.4762 17.2496 15.7958 17.2327 16.0433C17.2163 16.284 17.1868 16.4012 17.1549 16.4784C17.028 16.7846 16.7846 17.028 16.4784 17.1549C16.4012 17.1868 16.284 17.2163 16.0433 17.2327C15.7958 17.2496 15.4762 17.25 15 17.25C14.5238 17.25 14.2042 17.2496 13.9567 17.2327C13.716 17.2163 13.5988 17.1868 13.5216 17.1549C13.2154 17.028 12.972 16.7846 12.8452 16.4784C12.8132 16.4012 12.7837 16.284 12.7673 16.0433C12.7504 15.7958 12.75 15.4762 12.75 15C12.75 14.5238 12.7504 14.2042 12.7673 13.9567C12.7837 13.716 12.8132 13.5988 12.8452 13.5216C12.972 13.2154 13.2154 12.972 13.5216 12.8452Z" fill="#111111"/>
<path fill-rule="evenodd" clip-rule="evenodd" d="M26.1454 11.2708C25.8408 11.25 25.4697 11.25 25.0253 11.25H24.9748C24.5303 11.25 24.1592 11.25 23.8546 11.2708C23.5375 11.2924 23.238 11.339 22.9476 11.4593C22.2738 11.7384 21.7384 12.2738 21.4593 12.9476C21.339 13.238 21.2924 13.5375 21.2708 13.8546C21.25 14.1592 21.25 14.5303 21.25 14.9747V15.0253C21.25 15.4697 21.25 15.8408 21.2708 16.1454C21.2924 16.4625 21.339 16.762 21.4593 17.0524C21.7384 17.7262 22.2738 18.2616 22.9476 18.5407C23.238 18.661 23.5375 18.7076 23.8546 18.7292C24.1592 18.75 24.5303 18.75 24.9747 18.75H25.0253C25.4697 18.75 25.8408 18.75 26.1454 18.7292C26.4625 18.7076 26.762 18.661 27.0524 18.5407C27.7262 18.2616 28.2616 17.7262 28.5407 17.0524C28.661 16.762 28.7076 16.4625 28.7292 16.1454C28.75 15.8408 28.75 15.4697 28.75 15.0253V14.9747C28.75 14.5303 28.75 14.1592 28.7292 13.8546C28.7076 13.5375 28.661 13.238 28.5407 12.9476C28.2616 12.2738 27.7262 11.7384 27.0524 11.4593C26.762 11.339 26.4625 11.2924 26.1454 11.2708ZM23.5216 12.8452C23.5988 12.8132 23.716 12.7837 23.9567 12.7673C24.2042 12.7504 24.5238 12.75 25 12.75C25.4762 12.75 25.7958 12.7504 26.0433 12.7673C26.284 12.7837 26.4012 12.8132 26.4784 12.8452C26.7846 12.972 27.028 13.2154 27.1549 13.5216C27.1868 13.5988 27.2163 13.716 27.2327 13.9567C27.2496 14.2042 27.25 14.5238 27.25 15C27.25 15.4762 27.2496 15.7958 27.2327 16.0433C27.2163 16.284 27.1868 16.4012 27.1549 16.4784C27.028 16.7846 26.7846 17.028 26.4784 17.1549C26.4012 17.1868 26.284 17.2163 26.0433 17.2327C25.7958 17.2496 25.4762 17.25 25 17.25C24.5238 17.25 24.2042 17.2496 23.9567 17.2327C23.716 17.2163 23.5988 17.1868 23.5216 17.1549C23.2154 17.028 22.972 16.7846 22.8452 16.4784C22.8132 16.4012 22.7837 16.284 22.7673 16.0433C22.7504 15.7958 22.75 15.4762 22.75 15C22.75 14.5238 22.7504 14.2042 22.7673 13.9567C22.7837 13.716 22.8132 13.5988 22.8452 13.5216C22.972 13.2154 23.2154 12.972 23.5216 12.8452Z" fill="#111111"/>
<path fill-rule="evenodd" clip-rule="evenodd" d="M16.1454 21.2708C15.8408 21.25 15.4697 21.25 15.0253 21.25H14.9747C14.5303 21.25 14.1592 21.25 13.8546 21.2708C13.5375 21.2924 13.238 21.339 12.9476 21.4593C12.2738 21.7384 11.7384 22.2738 11.4593 22.9476C11.339 23.238 11.2924 23.5375 11.2708 23.8546C11.25 24.1592 11.25 24.5303 11.25 24.9747V25.0253C11.25 25.4697 11.25 25.8408 11.2708 26.1454C11.2924 26.4625 11.339 26.762 11.4593 27.0524C11.7384 27.7262 12.2738 28.2616 12.9476 28.5407C13.238 28.661 13.5375 28.7076 13.8546 28.7292C14.1592 28.75 14.5303 28.75 14.9747 28.75H15.0253C15.4697 28.75 15.8408 28.75 16.1454 28.7292C16.4625 28.7076 16.762 28.661 17.0524 28.5407C17.7262 28.2616 18.2616 27.7262 18.5407 27.0524C18.661 26.762 18.7076 26.4625 18.7292 26.1454C18.75 25.8408 18.75 25.4697 18.75 25.0253V24.9747C18.75 24.5303 18.75 24.1592 18.7292 23.8546C18.7076 23.5375 18.661 23.238 18.5407 22.9476C18.2616 22.2738 17.7262 21.7384 17.0524 21.4593C16.762 21.339 16.4625 21.2924 16.1454 21.2708ZM13.5216 22.8452C13.5988 22.8132 13.716 22.7837 13.9567 22.7673C14.2042 22.7504 14.5238 22.75 15 22.75C15.4762 22.75 15.7958 22.7504 16.0433 22.7673C16.284 22.7837 16.4012 22.8132 16.4784 22.8452C16.7846 22.972 17.028 23.2154 17.1549 23.5216C17.1868 23.5988 17.2163 23.716 17.2327 23.9567C17.2496 24.2042 17.25 24.5238 17.25 25C17.25 25.4762 17.2496 25.7958 17.2327 26.0433C17.2163 26.284 17.1868 26.4012 17.1549 26.4784C17.028 26.7846 16.7846 27.028 16.4784 27.1549C16.4012 27.1868 16.284 27.2163 16.0433 27.2327C15.7958 27.2496 15.4762 27.25 15 27.25C14.5238 27.25 14.2042 27.2496 13.9567 27.2327C13.716 27.2163 13.5988 27.1868 13.5216 27.1549C13.2154 27.028 12.972 26.7846 12.8452 26.4784C12.8132 26.4012 12.7837 26.284 12.7673 26.0433C12.7504 25.7958 12.75 25.4762 12.75 25C12.75 24.5238 12.7504 24.2042 12.7673 23.9567C12.7837 23.716 12.8132 23.5988 12.8452 23.5216C12.972 23.2154 13.2154 22.972 13.5216 22.8452Z" fill="#111111"/>
<path fill-rule="evenodd" clip-rule="evenodd" d="M26.1454 21.2708C25.8408 21.25 25.4697 21.25 25.0253 21.25H24.9747C24.5303 21.25 24.1592 21.25 23.8546 21.2708C23.5375 21.2924 23.238 21.339 22.9476 21.4593C22.2738 21.7384 21.7384 22.2738 21.4593 22.9476C21.339 23.238 21.2924 23.5375 21.2708 23.8546C21.25 24.1592 21.25 24.5303 21.25 24.9747V25.0253C21.25 25.4697 21.25 25.8408 21.2708 26.1454C21.2924 26.4625 21.339 26.762 21.4593 27.0524C21.7384 27.7262 22.2738 28.2616 22.9476 28.5407C23.238 28.661 23.5375 28.7076 23.8546 28.7292C24.1592 28.75 24.5303 28.75 24.9747 28.75H25.0253C25.4697 28.75 25.8408 28.75 26.1454 28.7292C26.4625 28.7076 26.762 28.661 27.0524 28.5407C27.7262 28.2616 28.2616 27.7262 28.5407 27.0524C28.661 26.762 28.7076 26.4625 28.7292 26.1454C28.75 25.8408 28.75 25.4697 28.75 25.0253V24.9747C28.75 24.5303 28.75 24.1592 28.7292 23.8546C28.7076 23.5375 28.661 23.238 28.5407 22.9476C28.2616 22.2738 27.7262 21.7384 27.0524 21.4593C26.762 21.339 26.4625 21.2924 26.1454 21.2708ZM23.5216 22.8452C23.5988 22.8132 23.716 22.7837 23.9567 22.7673C24.2042 22.7504 24.5238 22.75 25 22.75C25.4762 22.75 25.7958 22.7504 26.0433 22.7673C26.284 22.7837 26.4012 22.8132 26.4784 22.8452C26.7846 22.972 27.028 23.2154 27.1549 23.5216C27.1868 23.5988 27.2163 23.716 27.2327 23.9567C27.2496 24.2042 27.25 24.5238 27.25 25C27.25 25.4762 27.2496 25.7958 27.2327 26.0433C27.2163 26.284 27.1868 26.4012 27.1549 26.4784C27.028 26.7846 26.7846 27.028 26.4784 27.1549C26.4012 27.1868 26.284 27.2163 26.0433 27.2327C25.7958 27.2496 25.4762 27.25 25 27.25C24.5238 27.25 24.2042 27.2496 23.9567 27.2327C23.716 27.2163 23.5988 27.1868 23.5216 27.1549C23.2154 27.028 22.972 26.7846 22.8452 26.4784C22.8132 26.4012 22.7837 26.284 22.7673 26.0433C22.7504 25.7958 22.75 25.4762 22.75 25C22.75 24.5238 22.7504 24.2042 22.7673 23.9567C22.7837 23.716 22.8132 23.5988 22.8452 23.5216C22.972 23.2154 23.2154 22.972 23.5216 22.8452Z" fill="#111111"/>
</svg>
