<svg width="16" height="16" viewBox="0 0 16 16" fill="none" xmlns="http://www.w3.org/2000/svg">
<path d="M11.3333 12.2865H8.66659L5.69991 14.2598C5.25991 14.5532 4.66659 14.2399 4.66659 13.7065V12.2865C2.66659 12.2865 1.33325 10.9532 1.33325 8.95319V4.95315C1.33325 2.95315 2.66659 1.61981 4.66659 1.61981H11.3333C13.3333 1.61981 14.6666 2.95315 14.6666 4.95315V8.95319C14.6666 10.9532 13.3333 12.2865 11.3333 12.2865Z" stroke="#111111" stroke-miterlimit="10" stroke-linecap="round" stroke-linejoin="round"/>
<path d="M7.99996 7.57294V7.43296C7.99996 6.97963 8.27998 6.73962 8.55998 6.54629C8.83331 6.35962 9.10661 6.11963 9.10661 5.67963C9.10661 5.06629 8.61329 4.57294 7.99996 4.57294C7.38663 4.57294 6.89331 5.06629 6.89331 5.67963" stroke="#111111" stroke-linecap="round" stroke-linejoin="round"/>
<path d="M7.99708 9.16665H8.00308" stroke="#111111" stroke-linecap="round" stroke-linejoin="round"/>
</svg>
