<svg width="21" height="21" viewBox="0 0 21 21" fill="none" xmlns="http://www.w3.org/2000/svg">
<path d="M18.8333 5.49999V7.51665C18.8333 8.83332 17.9999 9.66666 16.6833 9.66666H13.8333V3.84166C13.8333 2.91666 14.5916 2.16666 15.5166 2.16666C16.4249 2.17499 17.2583 2.54165 17.8583 3.14165C18.4583 3.74999 18.8333 4.58332 18.8333 5.49999Z" stroke="#111111" stroke-width="1.25" stroke-miterlimit="10" stroke-linecap="round" stroke-linejoin="round"/>
<path d="M2.16675 6.33332V18C2.16675 18.6917 2.95008 19.0833 3.50008 18.6667L4.92508 17.6C5.25841 17.35 5.72508 17.3833 6.02508 17.6833L7.40841 19.075C7.73341 19.4 8.26675 19.4 8.59175 19.075L9.99175 17.675C10.2834 17.3833 10.7501 17.35 11.0751 17.6L12.5001 18.6667C13.0501 19.075 13.8334 18.6833 13.8334 18V3.83332C13.8334 2.91666 14.5834 2.16666 15.5001 2.16666H6.33341H5.50008C3.00008 2.16666 2.16675 3.65832 2.16675 5.49999V6.33332Z" stroke="#111111" stroke-width="1.25" stroke-miterlimit="10" stroke-linecap="round" stroke-linejoin="round"/>
<path d="M8 11.3417H10.5" stroke="#111111" stroke-width="1.25" stroke-linecap="round" stroke-linejoin="round"/>
<path d="M8 8.00833H10.5" stroke="#111111" stroke-width="1.25" stroke-linecap="round" stroke-linejoin="round"/>
<path d="M5.49634 11.3333H5.50382" stroke="#111111" stroke-width="1.66667" stroke-linecap="round" stroke-linejoin="round"/>
<path d="M5.49634 8H5.50382" stroke="#111111" stroke-width="1.66667" stroke-linecap="round" stroke-linejoin="round"/>
</svg>
