<svg width="23" height="23" viewBox="0 0 23 23" fill="none" xmlns="http://www.w3.org/2000/svg">
<path d="M11.6739 12.248H8.98511C8.60541 12.248 8.29761 12.5558 8.29761 12.9355C8.29761 13.3152 8.60541 13.623 8.98511 13.623H11.6739C12.0536 13.623 12.3614 13.3152 12.3614 12.9355C12.3614 12.5558 12.0536 12.248 11.6739 12.248Z" fill="#111111"/>
<path d="M10.8166 1.81449C11.1569 1.98293 11.2958 2.39543 11.1267 2.73574L10.7258 3.54424L11.5343 3.94574C11.8747 4.11487 12.0135 4.52668 11.8444 4.86699C11.676 5.2073 11.2628 5.34618 10.9232 5.17705L9.34259 4.39262C9.0889 4.2668 8.98578 3.95949 9.11159 3.7058L9.89603 2.12455C10.0645 1.78424 10.477 1.64537 10.8173 1.81449H10.8166Z" fill="#111111"/>
<path d="M12.6021 16.4782H3.66319C2.2985 16.4782 1.1875 15.3679 1.1875 14.0025V8.63862C1.1875 7.27393 2.29781 6.16293 3.66319 6.16293H12.6021C13.9668 6.16293 15.0778 7.27325 15.0778 8.63862V14.0025C15.0778 15.3672 13.9674 16.4782 12.6021 16.4782ZM3.66319 7.53862C3.05612 7.53862 2.5625 8.03225 2.5625 8.63931V14.0032C2.5625 14.6096 3.05612 15.1039 3.66319 15.1039H12.6021C13.2091 15.1039 13.7028 14.6102 13.7028 14.0032V8.63931C13.7028 8.03293 13.2091 7.53862 12.6021 7.53862H3.66319Z" fill="#111111"/>
<path d="M1.87366 9.22437H14.3889V10.5994H1.87366V9.22437Z" fill="#111111"/>
<path d="M12.875 20.4375C10.5141 20.4375 8.28799 19.5252 6.60499 17.8697C5.98486 17.2585 5.45755 16.5634 5.03955 15.8024L6.24405 15.1396C6.5988 15.7838 7.0443 16.3723 7.56955 16.89C8.99336 18.2911 10.8778 19.0632 12.8757 19.0632C17.0454 19.0632 20.4382 15.6704 20.4382 11.5007C20.4382 7.331 17.0454 3.93819 12.8757 3.93819C12.0775 3.93819 11.2917 4.06194 10.5416 4.30531L10.1174 2.99769C11.005 2.70962 11.9331 2.56387 12.8757 2.56387C17.8037 2.56387 21.8132 6.57337 21.8132 11.5014C21.8132 16.4294 17.8037 20.4389 12.8757 20.4389L12.875 20.4375Z" fill="#111111"/>
</svg>
