<svg width="16" height="16" viewBox="0 0 16 16" fill="none" xmlns="http://www.w3.org/2000/svg">
<path d="M12.6466 14.6667H3.31331C1.31331 14.6667 1.31331 13.7667 1.31331 12.6667V12C1.31331 11.6334 1.61331 11.3334 1.97998 11.3334H13.98C14.3466 11.3334 14.6466 11.6334 14.6466 12V12.6667C14.6466 13.7667 14.6466 14.6667 12.6466 14.6667Z" stroke="#111111" stroke-linecap="round" stroke-linejoin="round"/>
<path d="M13.8133 8.66671V11.3334H2.18001V8.66671C2.18001 6.10671 3.98668 3.96671 6.39334 3.45337C6.75334 3.37337 7.12668 3.33337 7.51334 3.33337H8.48001C8.86668 3.33337 9.24668 3.37337 9.60668 3.45337C12.0133 3.97337 13.8133 6.10671 13.8133 8.66671Z" stroke="#111111" stroke-linecap="round" stroke-linejoin="round"/>
<path d="M9.66667 3.00004C9.66667 3.16004 9.64667 3.30671 9.60667 3.45337C9.24667 3.37337 8.86667 3.33337 8.48 3.33337H7.51334C7.12667 3.33337 6.75334 3.37337 6.39334 3.45337C6.35334 3.30671 6.33334 3.16004 6.33334 3.00004C6.33334 2.08004 7.08 1.33337 8 1.33337C8.92 1.33337 9.66667 2.08004 9.66667 3.00004Z" stroke="#111111" stroke-linecap="round" stroke-linejoin="round"/>
<path d="M10 7.33337H6" stroke="#111111" stroke-linecap="round" stroke-linejoin="round"/>
</svg>
