<svg width="16" height="16" viewBox="0 0 16 16" fill="none" xmlns="http://www.w3.org/2000/svg">
<path d="M8.00002 8.00004C9.84097 8.00004 11.3334 6.50766 11.3334 4.66671C11.3334 2.82576 9.84097 1.33337 8.00002 1.33337C6.15907 1.33337 4.66669 2.82576 4.66669 4.66671C4.66669 6.50766 6.15907 8.00004 8.00002 8.00004Z" stroke="#E63946" stroke-linecap="round" stroke-linejoin="round"/>
<path d="M12.8067 10.4933L10.4467 12.8534C10.3534 12.9467 10.2667 13.12 10.2467 13.2467L10.12 14.1467C10.0734 14.4733 10.3 14.7 10.6267 14.6533L11.5267 14.5267C11.6534 14.5067 11.8334 14.42 11.92 14.3267L14.28 11.9667C14.6867 11.56 14.88 11.0867 14.28 10.4867C13.6867 9.89334 13.2134 10.0867 12.8067 10.4933Z" stroke="#E63946" stroke-miterlimit="10" stroke-linecap="round" stroke-linejoin="round"/>
<path d="M12.4667 10.8334C12.6667 11.5534 13.2267 12.1134 13.9467 12.3134" stroke="#E63946" stroke-miterlimit="10" stroke-linecap="round" stroke-linejoin="round"/>
<path d="M2.27325 14.6667C2.27325 12.0867 4.83994 10 7.99994 10C8.69327 10 9.35992 10.1 9.97992 10.2867" stroke="#E63946" stroke-linecap="round" stroke-linejoin="round"/>
</svg>
