<svg width="153" height="153" viewBox="0 0 153 153" fill="none" xmlns="http://www.w3.org/2000/svg">
<path d="M144.864 89.1716L144.819 89.1937C139.575 93.2156 137.353 100.06 139.22 106.393L139.242 106.438C142.219 116.504 134.842 126.659 124.353 126.926H124.309C117.687 127.103 111.865 131.325 109.665 137.57V137.592C106.154 147.502 94.199 151.391 85.5548 145.413C80.1872 141.748 73.0916 141.557 67.4443 145.413H67.4222C58.7783 151.368 46.8231 147.502 43.3343 137.569C41.1146 131.309 35.3012 127.103 28.6905 126.925H28.646C18.1577 126.658 10.7799 116.504 13.7577 106.437L13.7798 106.393C15.646 100.059 13.4239 93.2153 8.18011 89.1934L8.13558 89.1713C-0.197538 82.7713 -0.197538 70.2387 8.13558 63.839L8.18011 63.8169C13.4239 59.795 15.646 52.9506 13.7577 46.6176V46.5731C10.7575 36.507 18.1574 26.3516 28.646 26.0851H28.6905C35.2901 25.9073 41.1343 21.6851 43.3343 15.4411V15.419C46.8228 5.50838 58.7783 1.61973 67.4222 7.59749H67.4443C72.8884 11.3529 80.088 11.3529 85.5548 7.59749C94.2859 1.56803 106.174 5.56785 109.665 15.419V15.4411C111.865 21.663 117.687 25.9076 124.309 26.0851H124.353C134.842 26.3516 142.219 36.507 139.242 46.5731L139.22 46.6176C137.353 52.9506 139.575 59.795 144.819 63.8169L144.864 63.839C153.197 70.2387 153.197 82.7716 144.864 89.1716Z" fill="#2ECC71"/>
<path d="M76.5 117.893C99.3606 117.893 117.893 99.3608 117.893 76.5002C117.893 53.6396 99.3606 35.1074 76.5 35.1074C53.6394 35.1074 35.1072 53.6396 35.1072 76.5002C35.1072 99.3608 53.6394 117.893 76.5 117.893Z" fill="white"/>
<path opacity="0.1" d="M108.282 50.004C101.122 44.1141 91.9623 40.5739 81.9766 40.5739C59.1163 40.5739 40.574 59.1162 40.574 81.9765C40.574 91.9622 44.1142 101.122 50.0038 108.282C40.9072 100.694 35.1129 89.2793 35.1129 76.4996C35.1129 53.6389 53.6394 35.1128 76.4997 35.1128C89.2794 35.1128 100.694 40.9071 108.282 50.004Z" fill="black"/>
<path d="M66.6521 92.7043L57.4987 82.9661C55.1015 80.4153 55.2252 76.4047 57.7751 74.0075C60.325 71.6073 64.3374 71.7361 66.7325 74.2851L71.1019 78.9319L89.675 57.7037C91.9772 55.0693 95.9815 54.8021 98.618 57.1076C101.252 59.413 101.518 63.4161 99.2142 66.0506L76.0386 92.5372C73.5696 95.3561 69.2124 95.4299 66.6521 92.7043Z" fill="#2ECC71"/>
</svg>
