<svg width="48" height="49" viewBox="0 0 48 49" fill="none" xmlns="http://www.w3.org/2000/svg">
<path d="M37.0059 40.7155H4.03962C3.86609 40.7155 3.70531 40.6075 3.6334 40.4433L1.16196 35.6896C1.03503 35.3915 1.25084 35.0632 1.56818 35.0632H29.2615" fill="#E63946"/>
<path d="M28.9779 31.3455C28.9652 31.3498 28.9567 31.3498 28.944 31.3498H2.67266C2.423 31.3498 2.21984 31.0604 2.22828 30.8098C2.53719 20.3942 10.8951 12.0134 21.1701 12.0134C28.5039 12.0134 34.8601 16.2297 38.0044 22.4463" fill="#F2DD61"/>
<path d="M37.9233 40.7174C42.8671 40.7174 46.8749 36.6261 46.8749 31.5793C46.8749 26.5324 42.8671 22.4412 37.9233 22.4412C32.9795 22.4412 28.9717 26.5324 28.9717 31.5793C28.9717 36.6261 32.9795 40.7174 37.9233 40.7174Z" fill="#E63946"/>
<path d="M24.3886 12.322C24.4323 12.0986 24.4543 11.8695 24.4543 11.6348C24.4543 9.78551 22.982 8.28259 21.1705 8.28259C19.3534 8.28259 17.8867 9.78551 17.8867 11.6348C17.8867 11.8191 17.9031 11.998 17.9305 12.1711" fill="#D1AD90"/>
<path d="M9.02829 25.2068L6.94873 24.8077C7.57479 21.4053 9.77717 18.4808 12.8399 16.9852L13.7532 18.9335C11.2968 20.1333 9.53042 22.4785 9.02829 25.2068Z" fill="#D3B937"/>
<path d="M33.7036 34.6132L40.6325 27.54L42.1283 29.067L35.1994 36.1402L33.7036 34.6132Z" fill="white"/>
<path d="M33.7036 29.0654L35.1994 27.5384L42.1283 34.6116L40.6325 36.1386L33.7036 29.0654Z" fill="white"/>
</svg>
